<svg id="svg225" xmlns="http://www.w3.org/2000/svg" xmlns:xlink="http://www.w3.org/1999/xlink" viewBox="0 0 206.14 49.18"><defs><style>.cls-1{fill:none;}.cls-2{clip-path:url(#clip-path);}.cls-3{fill:#64a9a0;}.cls-4{fill:#9cbb59;}.cls-5{fill:#d6e4b2;}.cls-6{font-size:14px;font-family:AriaTextG2, Aria Text G2;}.cls-7{letter-spacing:-0.01em;}.cls-8{letter-spacing:0em;}.cls-9{letter-spacing:-0.05em;}.cls-10{letter-spacing:-0.1em;}.cls-11{letter-spacing:-0.03em;}</style><clipPath id="clip-path" transform="translate(0.02 0)"><rect class="cls-1" width="210.17" height="48"/></clipPath></defs><g class="cls-2"><g id="g216"><path id="path200" class="cls-3" d="M76.29,11.39a5.33,5.33,0,0,1-1,3.06,4.64,4.64,0,0,1-2.4,1.77,9.43,9.43,0,0,1-1.93.37,22.71,22.71,0,0,1-2.47.13c-.93,0-1.66,0-2.2-.07v7.67h-2.2V6h5.77a11.5,11.5,0,0,1,1.86.1,11,11,0,0,1,1.17.2,4.89,4.89,0,0,1,2.5,1.9A5.49,5.49,0,0,1,76.29,11.39Zm-7.6,3.4a14.23,14.23,0,0,0,2.87-.24,3.29,3.29,0,0,0,1.83-1,3.38,3.38,0,0,0,.7-2.3A3.12,3.12,0,0,0,73.26,9,3.51,3.51,0,0,0,71,8a12.2,12.2,0,0,0-2.34-.13h-2.4v6.83C67.18,14.75,68,14.79,68.69,14.79Zm14.66-1.57a10.79,10.79,0,0,0-1.7.17,10.9,10.9,0,0,0-1.73.37l-.44-1.6a12.67,12.67,0,0,1,4.17-.77,6.56,6.56,0,0,1,3.3.67,4,4,0,0,1,1.36,1.56,5.77,5.77,0,0,1,.4,2.43v8.27H87.08l-.47-1.2a6.14,6.14,0,0,1-3.89,1.53,4.42,4.42,0,0,1-2.94-1,3.21,3.21,0,0,1-1.16-2.53,3.49,3.49,0,0,1,.9-2.47,4.54,4.54,0,0,1,2.26-1.33,22.62,22.62,0,0,1,4.77-.5v-.1a5.45,5.45,0,0,0-.27-2C85.93,13.72,85,13.22,83.35,13.22ZM83,22.92A4.68,4.68,0,0,0,85,22.55a6.45,6.45,0,0,0,1.6-1.1V18.39a19.67,19.67,0,0,0-3.4.26,4.11,4.11,0,0,0-1.83.8,1.77,1.77,0,0,0-.6,1.44,1.83,1.83,0,0,0,.66,1.5A2.66,2.66,0,0,0,83,22.92Zm13.06,8.26H93.84L96.31,25,91.18,11.52h2.26l3.94,10.6,3.93-10.6h2.06Zm13.75-8.56a3.91,3.91,0,0,0,1.13-.2l.4,1.56-.8.34a4.63,4.63,0,0,1-1.8.3,2.46,2.46,0,0,1-2-.84,3.44,3.44,0,0,1-.77-2.23v-15h2.1V20.79a2.52,2.52,0,0,0,.3,1.36c.2.31.66.47,1.4.47Zm7.67-9.4a15.67,15.67,0,0,0-3.43.54l-.43-1.6a12.57,12.57,0,0,1,4.16-.77,6.51,6.51,0,0,1,3.3.67,4,4,0,0,1,1.37,1.56,5.94,5.94,0,0,1,.4,2.43v8.27h-1.64l-.46-1.2a6.19,6.19,0,0,1-3.9,1.53,4.39,4.39,0,0,1-2.93-1,3.19,3.19,0,0,1-1.17-2.53,3.49,3.49,0,0,1,.9-2.47,4.57,4.57,0,0,1,2.27-1.33,22.51,22.51,0,0,1,4.76-.5v-.1a5.45,5.45,0,0,0-.27-2c-.35-1-1.33-1.5-2.93-1.5Zm-.33,9.7a4.65,4.65,0,0,0,1.93-.37,6.27,6.27,0,0,0,1.6-1.1V18.39a19.85,19.85,0,0,0-3.4.26,4.11,4.11,0,0,0-1.83.8,1.77,1.77,0,0,0-.6,1.44,1.81,1.81,0,0,0,.67,1.5A2.63,2.63,0,0,0,117.17,22.92Zm13.69,1.66a3.33,3.33,0,0,1-2.76-1,5.26,5.26,0,0,1-.8-3.2v-7h-2.17v-1.8h2.17V8.39l2.16-.17v3.3h4.2v1.8h-4.2v6.9a3.63,3.63,0,0,0,.4,1.93,1.91,1.91,0,0,0,1.64.6,9,9,0,0,0,2-.2l.36,1.47a8.46,8.46,0,0,1-3,.56Zm10.63-13.22a5,5,0,0,1,3.9,1.53,6.11,6.11,0,0,1,1.36,4.26v1.17l-.13.27h-8.76a4.5,4.5,0,0,0,1.23,3,5,5,0,0,0,3.63,1.16,9.63,9.63,0,0,0,3.1-.49l.4,1.59a12.44,12.44,0,0,1-4.1.7,6.32,6.32,0,0,1-4.73-1.66,6.52,6.52,0,0,1-1.63-4.77,7.78,7.78,0,0,1,1.43-4.83A5.13,5.13,0,0,1,141.49,11.36Zm3.06,5.49a4.7,4.7,0,0,0-.73-2.73,2.35,2.35,0,0,0-2.1-1.06,3.39,3.39,0,0,0-2.7,1.06,4.91,4.91,0,0,0-1.13,2.73Zm10.8-5.49a5.19,5.19,0,0,1,1.16.1,3.2,3.2,0,0,1,.9.26l-.76,1.94a4.46,4.46,0,0,0-1.9-.4,4.87,4.87,0,0,0-2.77.93V24.32h-2.17V11.52h1.57l.47,1.1A5.7,5.7,0,0,1,155.35,11.36Z" transform="translate(0.02 0)"/><path id="path202" class="cls-4" d="M171.94,13.69h-8.86V6h-3.27V24.32h3.27V16.65h8.86v7.67h3.23V6h-3.23Zm18.32,10.66V11.52h-3.13v9.6a5.55,5.55,0,0,1-2.8.77,2,2,0,0,1-1.83-.8,3.37,3.37,0,0,1-.5-1.84V11.52h-3.17v7.3A9,9,0,0,0,179.7,23c.6,1.11,1.86,1.67,3.79,1.67a6.06,6.06,0,0,0,2-.3,19.66,19.66,0,0,0,2.17-.9l.4.93Zm3.4,0h2.27l.26-.7a6.75,6.75,0,0,0,3.4,1,6.33,6.33,0,0,0,4.8-1.77,6.78,6.78,0,0,0,1.73-4.9,7,7,0,0,0-.93-3.79A5.47,5.47,0,0,0,202.82,12a6.65,6.65,0,0,0-2.93-.67,7.4,7.4,0,0,0-3,.54V6h-3.2Zm5.5-10.5c2.46,0,3.7,1.43,3.7,4.3a4,4,0,0,1-1.07,3.07,3.93,3.93,0,0,1-2.73.93,3.82,3.82,0,0,1-2.2-.63V14.25A5.86,5.86,0,0,1,199.16,13.82Z" transform="translate(0.02 0)"/><path id="path204" class="cls-4" d="M14,23.81,0,23.65l13.94,24,14,.16Z" transform="translate(0.02 0)"/><path id="path206" class="cls-3" d="M41,34.79l6.88,11.83L61.53,24.37l-14-.17Z" transform="translate(0.02 0)"/><path id="path208" class="cls-5" d="M37,14.82l-14-.16-5.63,9.19,14,.16Z" transform="translate(0.02 0)"/><path id="path210" class="cls-4" d="M45.36,48l-14-24-14-.17,13.94,24Z" transform="translate(0.02 0)"/><path id="path212" class="cls-4" d="M48.42,1.81l-7.19,11.6L47.5,24.2l14,.17Z" transform="translate(0.02 0)"/><path id="path214" class="cls-5" d="M21.36,11.83l17.4.21L45.92.36,14.47,0,0,23.65l14,.16Z" transform="translate(0.02 0)"/></g></g><text class="cls-6" transform="translate(61.36 44.02)">C<tspan class="cls-7" x="10.29" y="0">r</tspan><tspan class="cls-8" x="15.97" y="0">edit</tspan><tspan class="cls-9" x="40.35" y="0"> </tspan><tspan class="cls-10" x="43.05" y="0">W</tspan><tspan class="cls-8" x="56.7" y="0">orkMaster 2</tspan><tspan class="cls-11" x="132.42" y="0">.</tspan><tspan x="135.64" y="0">0</tspan></text></svg>