<?xml version="1.0" encoding="UTF-8" standalone="no"?>
<svg
   width="360.50247"
   height="47.996201"
   viewBox="0 0 360.50248 47.996201"
   fill="none"
   version="1.1"
   id="svg225"
   sodipodi:docname="backoffice-logo.svg"
   inkscape:version="1.2.2 (b0a8486, 2022-12-01)"
   xmlns:inkscape="http://www.inkscape.org/namespaces/inkscape"
   xmlns:sodipodi="http://sodipodi.sourceforge.net/DTD/sodipodi-0.dtd"
   xmlns="http://www.w3.org/2000/svg"
   xmlns:svg="http://www.w3.org/2000/svg">
  <sodipodi:namedview
     id="namedview227"
     pagecolor="#ffffff"
     bordercolor="#000000"
     borderopacity="0.25"
     inkscape:showpageshadow="2"
     inkscape:pageopacity="0.0"
     inkscape:pagecheckerboard="0"
     inkscape:deskcolor="#d1d1d1"
     showgrid="false"
     showguides="true"
     inkscape:zoom="2.6917527"
     inkscape:cx="179.25124"
     inkscape:cy="23.962082"
     inkscape:window-width="1680"
     inkscape:window-height="935"
     inkscape:window-x="0"
     inkscape:window-y="25"
     inkscape:window-maximized="1"
     inkscape:current-layer="svg225" />
  <defs
     id="defs223">
    <clipPath
       id="clip0_2728_13135">
      <rect
         width="210.16701"
         height="48"
         fill="#ffffff"
         transform="translate(39.9141,0.5)"
         id="rect220"
         x="0"
         y="0" />
    </clipPath>
  </defs>
  <g
     id="g487">
    <g
       clip-path="url(#clip0_2728_13135)"
       id="g216"
       transform="translate(-39.9141,-0.5)">
      <path
         d="m 120.234,21.9882 c -0.044,1.1996 -0.377,2.2214 -0.999,3.0655 -0.6,0.8442 -1.4,1.4328 -2.399,1.766 -0.467,0.1555 -1.111,0.2777 -1.933,0.3666 -0.822,0.0888 -1.644,0.1332 -2.466,0.1332 -0.933,0 -1.666,-0.0222 -2.199,-0.0666 v 7.6637 h -2.199 V 16.5903 h 5.764 c 0.867,0 1.489,0.0334 1.866,0.1 0.4,0.0445 0.789,0.1111 1.167,0.1999 1.066,0.3776 1.899,1.0107 2.499,1.8993 0.599,0.8663 0.899,1.9326 0.899,3.1987 z m -7.597,3.3988 c 1.156,0 2.11,-0.0778 2.866,-0.2333 0.755,-0.1555 1.366,-0.4887 1.832,-0.9996 0.467,-0.5332 0.7,-1.2995 0.7,-2.2991 0,-0.9774 -0.278,-1.7438 -0.833,-2.2991 -0.555,-0.5554 -1.299,-0.8775 -2.232,-0.9663 -0.334,-0.0889 -1.111,-0.1333 -2.333,-0.1333 h -2.399 v 6.8307 c 0.889,0.0666 1.688,0.1 2.399,0.1 z m 14.656,-1.5661 c -0.467,0 -1.033,0.0555 -1.699,0.1666 -0.644,0.0888 -1.222,0.211 -1.733,0.3665 l -0.433,-1.5994 c 1.488,-0.5109 2.877,-0.7664 4.165,-0.7664 1.444,0 2.543,0.2222 3.299,0.6664 0.666,0.4888 1.121,1.0107 1.366,1.5661 0.266,0.5554 0.399,1.3661 0.399,2.4324 v 8.2635 h -1.632 l -0.467,-1.1996 c -1.265,1.0219 -2.565,1.5328 -3.898,1.5328 -1.155,0 -2.132,-0.3332 -2.932,-0.9996 -0.778,-0.6664 -1.166,-1.5105 -1.166,-2.5324 0,-0.9996 0.3,-1.8215 0.899,-2.4657 0.622,-0.6664 1.377,-1.1107 2.266,-1.3328 1.133,-0.2888 2.721,-0.4554 4.765,-0.4998 v -0.1 c 0,-0.9107 -0.089,-1.5772 -0.267,-1.9992 -0.355,-0.9996 -1.333,-1.4994 -2.932,-1.4994 z m -0.333,9.6962 c 0.733,0 1.377,-0.1222 1.932,-0.3665 0.556,-0.2666 1.089,-0.6331 1.6,-1.0996 v -3.0654 c -1.533,0.0221 -2.666,0.111 -3.399,0.2665 -0.822,0.1777 -1.432,0.4443 -1.833,0.7997 -0.399,0.3332 -0.599,0.8108 -0.599,1.4328 0,0.6442 0.222,1.144 0.666,1.4994 0.467,0.3554 1.011,0.5331 1.633,0.5331 z m 13.06,8.2635 h -2.232 l 2.466,-6.1976 -5.132,-13.4614 h 2.266 l 3.932,10.5958 3.932,-10.5958 h 2.066 z m 13.753,-8.5634 c 0.332,0 0.71,-0.0666 1.133,-0.1999 l 0.399,1.5661 c -0.067,0.0222 -0.333,0.1333 -0.8,0.3332 -0.466,0.1999 -1.066,0.2999 -1.799,0.2999 -0.822,0 -1.477,-0.2777 -1.966,-0.833 -0.489,-0.5776 -0.744,-1.3218 -0.766,-2.2325 V 17.1568 h 2.099 v 14.2278 c 0,0.5998 0.1,1.0552 0.3,1.3662 0.2,0.3109 0.666,0.4664 1.4,0.4664 z m 7.673,-9.3963 c -0.466,0 -1.033,0.0555 -1.699,0.1666 -0.644,0.0888 -1.221,0.211 -1.732,0.3665 l -0.434,-1.5994 c 1.488,-0.5109 2.877,-0.7664 4.165,-0.7664 1.444,0 2.544,0.2222 3.299,0.6664 0.666,0.4888 1.122,1.0107 1.366,1.5661 0.267,0.5554 0.4,1.3661 0.4,2.4324 v 8.2635 h -1.633 l -0.466,-1.1996 c -1.266,1.0219 -2.566,1.5328 -3.898,1.5328 -1.155,0 -2.133,-0.3332 -2.933,-0.9996 -0.778,-0.6664 -1.166,-1.5105 -1.166,-2.5324 0,-0.9996 0.3,-1.8215 0.899,-2.4657 0.622,-0.6664 1.378,-1.1107 2.266,-1.3328 1.133,-0.2888 2.722,-0.4554 4.765,-0.4998 v -0.1 c 0,-0.9107 -0.089,-1.5772 -0.266,-1.9992 -0.356,-0.9996 -1.333,-1.4994 -2.933,-1.4994 z m -0.333,9.6962 c 0.733,0 1.377,-0.1222 1.933,-0.3665 0.555,-0.2666 1.088,-0.6331 1.599,-1.0996 v -3.0654 c -1.533,0.0221 -2.665,0.111 -3.399,0.2665 -0.821,0.1777 -1.432,0.4443 -1.832,0.7997 -0.4,0.3332 -0.6,0.8108 -0.6,1.4328 0,0.6442 0.223,1.144 0.667,1.4994 0.466,0.3554 1.011,0.5331 1.632,0.5331 z m 13.694,1.666 c -1.288,0 -2.21,-0.3443 -2.765,-1.0329 -0.534,-0.7109 -0.801,-1.7771 -0.801,-3.1987 v -7.0306 h -2.165 v -1.7993 h 2.165 v -3.1322 l 2.167,-0.1666 v 3.2988 h 4.198 v 1.7993 h -4.198 v 6.8973 c 0,0.8885 0.133,1.5327 0.399,1.9326 0.289,0.3998 0.833,0.5997 1.633,0.5997 0.755,0 1.433,-0.0666 2.033,-0.1999 l 0.366,1.4661 c -1,0.3776 -2.01,0.5664 -3.032,0.5664 z M 185.432,21.955 c 1.688,0 2.988,0.5109 3.898,1.5327 0.912,0.9996 1.367,2.4212 1.367,4.265 v 1.1662 l -0.133,0.2666 H 181.8 c 0,1.0885 0.411,2.0992 1.233,3.0321 0.778,0.7775 1.988,1.1662 3.632,1.1662 1.088,0 2.121,-0.1666 3.099,-0.4998 l 0.399,1.5994 c -1.354,0.4665 -2.72,0.6997 -4.098,0.6997 -2.066,0 -3.643,-0.5553 -4.731,-1.666 -1.089,-1.1106 -1.633,-2.6989 -1.633,-4.7648 0,-1.9548 0.478,-3.5653 1.433,-4.8314 1.021,-1.3107 2.454,-1.9659 4.298,-1.9659 z m 3.065,5.4978 c 0,-1.1107 -0.244,-2.0214 -0.732,-2.7323 -0.467,-0.7108 -1.167,-1.0662 -2.1,-1.0662 -1.177,0 -2.077,0.3554 -2.699,1.0662 -0.622,0.7109 -0.999,1.6216 -1.133,2.7323 z M 199.29,21.955 c 0.489,0 0.877,0.0332 1.167,0.0999 0.31,0.0444 0.61,0.1333 0.899,0.2665 l -0.766,1.9327 c -0.578,-0.2666 -1.211,-0.3999 -1.9,-0.3999 -0.933,0 -1.855,0.311 -2.765,0.9329 v 10.1295 h -2.166 v -12.795 h 1.566 l 0.467,1.0995 c 1.11,-0.8441 2.276,-1.2661 3.498,-1.2661 z"
         fill="#64a9a0"
         id="path200" />
      <path
         d="m 215.886,24.2873 h -8.863 v -7.697 h -3.265 v 18.3263 h 3.265 v -7.6637 h 8.863 v 7.6637 h 3.233 V 16.5903 h -3.233 z m 18.318,10.6626 V 22.1216 h -3.133 v 9.5962 c -0.888,0.5109 -1.821,0.7664 -2.799,0.7664 -0.888,0 -1.499,-0.2666 -1.832,-0.7997 -0.333,-0.5331 -0.5,-1.144 -0.5,-1.8326 v -7.7303 h -3.165 v 7.2971 c 0,1.6216 0.288,2.9988 0.866,4.1317 0.599,1.1107 1.866,1.6661 3.798,1.6661 0.756,0 1.422,-0.1 2,-0.2999 0.6,-0.1999 1.321,-0.4998 2.165,-0.8997 l 0.4,0.933 z m 3.4,-0.0333 h 2.266 l 0.267,-0.6998 c 1.133,0.6665 2.265,0.9997 3.398,0.9997 2.066,0 3.665,-0.5887 4.798,-1.766 1.155,-1.1996 1.733,-2.8323 1.733,-4.8982 0,-1.5549 -0.311,-2.8211 -0.933,-3.7984 -0.622,-0.9996 -1.41,-1.7216 -2.366,-2.1659 -0.933,-0.4443 -1.91,-0.6664 -2.932,-0.6664 -1.222,0 -2.233,0.1777 -3.032,0.5331 v -5.8644 h -3.199 z m 5.498,-10.4959 c 2.466,0 3.699,1.4327 3.699,4.2983 0,1.3994 -0.356,2.4212 -1.067,3.0655 -0.688,0.622 -1.599,0.9329 -2.732,0.9329 -0.844,0 -1.577,-0.211 -2.199,-0.6331 v -7.2305 c 0.666,-0.2888 1.433,-0.4331 2.299,-0.4331 z"
         fill="#9cbb59"
         id="path202" />
      <path
         d="M 53.9302,24.3116 39.8906,24.1484 53.8354,48.1289 67.8732,48.292 Z"
         fill="#9cbb59"
         id="path204" />
      <path
         d="M 80.9141,35.2908 87.7974,47.1232 101.443,24.8673 87.4041,24.7041 Z"
         fill="#64a9a0"
         id="path206" />
      <path
         d="m 76.9584,15.3234 -14.0438,-0.1632 -5.6334,9.191 14.0376,0.1632 z"
         fill="#d6e4b2"
         id="path208" />
      <path
         d="M 85.2694,48.4962 71.3188,24.5157 57.2812,24.3525 71.226,48.333 Z"
         fill="#9cbb59"
         id="path210" />
      <path
         d="M 88.3372,2.30957 81.1406,13.9078 87.415,24.7027 101.454,24.866 Z"
         fill="#9cbb59"
         id="path212" />
      <path
         d="M 61.2718,12.3329 78.6774,12.5352 85.8316,0.862009 54.3889,0.496582 39.8906,24.1504 53.9302,24.3136 Z"
         fill="#d6e4b2"
         id="path214" />
    </g>
    <g
       id="g1504"
       transform="matrix(1.0344191,0,0,1,-5.6991555,0)">
      <g
         id="g1490">
        <g
           id="g1477">
          <g
             aria-label="Back Office"
             transform="scale(1.0680932,0.93624787)"
             id="text500"
             style="font-size:26.4858px;font-family:'PT Sans';-inkscape-font-specification:'PT Sans';fill:#64a9a0;stroke:#64a9a0;stroke-width:0.794365">
            <path
               d="m 220.60481,22.100905 q 0,0.662144 -0.21188,1.350775 -0.21189,0.688631 -0.63566,1.297804 -0.42377,0.582688 -1.08592,1.032947 -0.66214,0.450258 -1.56266,0.68863 v 0.105944 q 0.79457,0.132429 1.50969,0.450258 0.7416,0.31783 1.2978,0.874032 0.55621,0.556201 0.90052,1.350775 0.34432,0.794574 0.34432,1.880492 0,1.430233 -0.60918,2.489665 -0.58269,1.032947 -1.56266,1.695092 -0.95349,0.662145 -2.19832,0.979974 -1.24483,0.31783 -2.54264,0.31783 -0.45026,0 -1.05943,0 -0.60917,0 -1.27132,-0.05297 -0.66214,-0.02649 -1.32429,-0.105943 -0.66214,-0.05297 -1.16537,-0.185401 V 18.022091 q 0.97997,-0.158914 2.27778,-0.264858 1.2978,-0.105943 2.83398,-0.105943 1.03294,0 2.09237,0.185401 1.08592,0.158915 1.95995,0.662145 0.87403,0.476744 1.43024,1.350776 0.58268,0.874031 0.58268,2.251293 z m -6.1447,12.60724 q 0.84754,0 1.64212,-0.1854 0.79457,-0.211887 1.40375,-0.63566 0.60917,-0.450258 0.95348,-1.085917 0.37081,-0.63566 0.37081,-1.509691 0,-1.085918 -0.45026,-1.748063 -0.42378,-0.662145 -1.13889,-1.032946 -0.68863,-0.370801 -1.56266,-0.50323 -0.87404,-0.132429 -1.74807,-0.132429 h -2.30426 v 6.647936 q 0.1854,0.05297 0.52971,0.07946 0.34432,0.02649 0.74161,0.05297 0.39728,0.02649 0.82106,0.05297 0.42377,0 0.7416,0 z m -1.45672,-8.687342 q 0.45026,0 1.08592,-0.02649 0.63566,-0.02649 1.05943,-0.07946 0.63566,-0.211887 1.19186,-0.503231 0.5562,-0.317829 0.97997,-0.715116 0.45026,-0.423773 0.68864,-0.953489 0.26485,-0.556202 0.26485,-1.191861 0,-0.874031 -0.34431,-1.430233 -0.31783,-0.582688 -0.87403,-0.927003 -0.5562,-0.344315 -1.27132,-0.476744 -0.71512,-0.158915 -1.45672,-0.158915 -0.87403,0 -1.61563,0.05297 -0.71512,0.02649 -1.08592,0.105944 v 6.30362 z"
               id="path1448" />
            <path
               d="m 224.47173,24.140311 q 1.00646,-0.609173 2.33075,-0.900517 1.35078,-0.291344 2.8075,-0.291344 1.37726,0 2.19832,0.370801 0.84754,0.370801 1.27132,0.979975 0.45025,0.582687 0.58268,1.297804 0.15892,0.715117 0.15892,1.430233 0,1.589148 -0.0795,3.098839 -0.0795,1.50969 -0.0795,2.860466 0,0.979975 0.0795,1.854006 0.0795,0.874032 0.29134,1.615634 h -1.56266 l -0.5562,-1.854006 h -0.13243 q -0.23837,0.370801 -0.60917,0.741602 -0.34432,0.344316 -0.84755,0.63566 -0.50323,0.264858 -1.16537,0.450258 -0.66215,0.185401 -1.50969,0.185401 -0.84755,0 -1.58915,-0.264858 -0.71512,-0.264858 -1.24483,-0.741603 -0.52972,-0.50323 -0.84755,-1.191861 -0.29134,-0.68863 -0.29134,-1.562662 0,-1.165375 0.47674,-1.933463 0.47675,-0.794574 1.32429,-1.244833 0.87403,-0.476744 2.06589,-0.662145 1.21835,-0.211886 2.67507,-0.211886 0.3708,0 0.71512,0 0.3708,0 0.7416,0.05297 0.0795,-0.794574 0.0795,-1.430233 0,-1.456719 -0.58269,-2.039406 -0.58269,-0.582688 -2.11887,-0.582688 -0.45025,0 -0.97997,0.07946 -0.50323,0.05297 -1.05943,0.185401 -0.52972,0.105943 -1.03295,0.291344 -0.47674,0.158915 -0.84754,0.370801 z m 3.76098,10.620806 q 0.74161,0 1.32429,-0.185401 0.58269,-0.211886 1.00646,-0.50323 0.42378,-0.31783 0.68864,-0.688631 0.29134,-0.370801 0.42377,-0.715116 v -2.198322 q -0.3708,-0.02649 -0.76809,-0.02649 -0.3708,-0.02648 -0.7416,-0.02648 -0.82106,0 -1.61564,0.105943 -0.76808,0.07946 -1.37726,0.344315 -0.58269,0.238372 -0.95349,0.688631 -0.34431,0.423773 -0.34431,1.085918 0,0.927003 0.66214,1.536176 0.66215,0.582688 1.69509,0.582687 z"
               id="path1450" />
            <path
               d="m 246.85219,35.529205 q -0.79458,0.582688 -1.88049,0.874031 -1.08592,0.31783 -2.27778,0.31783 -1.53618,0 -2.59561,-0.476744 -1.05943,-0.503231 -1.74806,-1.403748 -0.66215,-0.927003 -0.97998,-2.198321 -0.29134,-1.297804 -0.29134,-2.860467 0,-3.363696 1.4832,-5.138245 1.48321,-1.801034 4.26422,-1.801034 1.27132,0 2.14535,0.211886 0.90051,0.185401 1.61563,0.556202 l -0.60917,1.82752 q -0.60918,-0.344315 -1.35078,-0.529716 -0.7416,-0.211886 -1.58915,-0.211886 -3.76098,0 -3.76098,5.085273 0,1.006461 0.1854,1.933464 0.21189,0.900517 0.66215,1.615634 0.47674,0.68863 1.21834,1.112403 0.76809,0.423773 1.88049,0.423773 0.95349,0 1.6951,-0.291344 0.76808,-0.291344 1.24483,-0.662145 z"
               id="path1452" />
            <path
               d="m 253.10279,30.443931 h -1.21834 v 5.959305 h -2.11887 V 17.863177 h 2.11887 v 11.28295 l 1.08592,-0.370801 4.10529,-5.61499 h 2.46318 l -4.05232,5.323646 -1.08592,0.874032 1.32429,1.059432 4.42313,5.98579 h -2.6221 z"
               id="path1454" />
            <path
               d="m 268.1731,27.133206 q 0,-4.635015 1.95995,-7.098194 1.95995,-2.489665 5.5885,-2.489665 1.95995,0 3.39019,0.688631 1.43023,0.688631 2.35723,1.959949 0.95349,1.244833 1.40375,3.019381 0.45026,1.748063 0.45026,3.919898 0,4.635015 -1.98644,7.124681 -1.95995,2.463179 -5.61499,2.463179 -1.93346,0 -3.36369,-0.688631 -1.40375,-0.688631 -2.35724,-1.933463 -0.927,-1.271319 -1.37726,-3.019381 -0.45026,-1.774549 -0.45026,-3.946385 z m 2.33075,0 q 0,1.536177 0.29134,2.913438 0.31783,1.377262 0.95349,2.436694 0.63566,1.032946 1.61564,1.668605 1.00646,0.609174 2.35723,0.609174 2.46318,0 3.86693,-1.854006 1.40375,-1.880492 1.40375,-5.773905 0,-1.50969 -0.31783,-2.886952 -0.29135,-1.403747 -0.95349,-2.436693 -0.63566,-1.059432 -1.64212,-1.668606 -0.97998,-0.635659 -2.35724,-0.635659 -2.43669,0 -3.84044,1.880492 -1.37726,1.854006 -1.37726,5.747418 z"
               id="path1456" />
            <path
               d="m 285.38882,23.160336 h 2.0659 v -0.741602 q 0,-1.218347 0.1854,-2.118864 0.21188,-0.900517 0.66214,-1.456719 0.45026,-0.582687 1.16538,-0.847545 0.71511,-0.291344 1.77455,-0.291344 0.84754,0 1.4832,0.105943 0.66215,0.105943 1.37726,0.397287 l -0.47674,1.774549 q -0.60917,-0.264858 -1.16538,-0.344316 -0.52971,-0.07946 -1.00646,-0.07946 -0.68863,0 -1.08591,0.211886 -0.37081,0.211887 -0.55621,0.635659 -0.15891,0.397287 -0.21188,1.006461 -0.0265,0.582687 -0.0265,1.377261 v 0.370801 h 3.52261 v 1.854006 h -3.52261 v 11.388894 h -2.11886 V 25.014342 h -2.0659 z"
               id="path1458" />
            <path
               d="m 305.4915,23.160336 v 13.2429 h -2.11887 V 25.014342 h -5.35013 v 11.388894 h -2.11886 V 25.014342 h -2.06589 v -1.854006 h 2.06589 v -0.741602 q 0,-2.489665 1.21835,-3.602069 1.24483,-1.138889 3.62855,-1.138889 1.56266,0 2.78101,0.31783 1.21835,0.291343 1.90698,0.715116 l -0.71512,1.695091 q -0.71512,-0.450258 -1.69509,-0.662145 -0.97998,-0.211886 -2.09238,-0.211886 -0.97997,0 -1.56266,0.238372 -0.5562,0.211887 -0.87403,0.688631 -0.29135,0.450259 -0.39729,1.138889 -0.0795,0.688631 -0.0795,1.562662 z"
               id="path1460" />
            <path
               d="m 318.62843,35.529205 q -0.79457,0.582688 -1.88049,0.874031 -1.08592,0.31783 -2.27778,0.31783 -1.53618,0 -2.59561,-0.476744 -1.05943,-0.503231 -1.74806,-1.403748 -0.66215,-0.927003 -0.97998,-2.198321 -0.29134,-1.297804 -0.29134,-2.860467 0,-3.363696 1.4832,-5.138245 1.48321,-1.801034 4.26422,-1.801034 1.27132,0 2.14535,0.211886 0.90052,0.185401 1.61563,0.556202 l -0.60917,1.82752 q -0.60918,-0.344315 -1.35078,-0.529716 -0.7416,-0.211886 -1.58915,-0.211886 -3.76098,0 -3.76098,5.085273 0,1.006461 0.1854,1.933464 0.21189,0.900517 0.66215,1.615634 0.47674,0.68863 1.21834,1.112403 0.76809,0.423773 1.8805,0.423773 0.95348,0 1.69509,-0.291344 0.76808,-0.291344 1.24483,-0.662145 z"
               id="path1462" />
            <path
               d="m 330.59995,35.343804 q -0.79457,0.63566 -2.01292,1.006461 -1.19186,0.370801 -2.54264,0.370801 -1.50969,0 -2.62209,-0.476744 -1.11241,-0.503231 -1.82752,-1.403748 -0.71512,-0.927003 -1.05943,-2.198321 -0.34432,-1.271319 -0.34432,-2.860467 0,-3.390182 1.50969,-5.164731 1.50969,-1.774548 4.31719,-1.774548 0.90051,0 1.80103,0.211886 0.90052,0.185401 1.61563,0.741603 0.71512,0.556201 1.16538,1.589148 0.45026,1.00646 0.45026,2.675065 0,0.874032 -0.15892,1.933464 h -8.50194 q 0,1.165375 0.23837,2.065892 0.23838,0.900517 0.74161,1.536177 0.50323,0.609173 1.2978,0.953488 0.82106,0.31783 1.98644,0.31783 0.90051,0 1.80103,-0.31783 0.90052,-0.317829 1.35078,-0.741602 z m -4.55556,-10.647291 q -1.56266,0 -2.51615,0.82106 -0.927,0.821059 -1.1124,2.807494 h 6.56848 q 0,-2.01292 -0.76809,-2.807494 -0.76809,-0.82106 -2.17184,-0.82106 z"
               id="path1464" />
          </g>
        </g>
      </g>
    </g>
  </g>
</svg>
