<svg width="219" height="50" viewBox="0 0 219 50" fill="none" xmlns="http://www.w3.org/2000/svg">
<g clip-path="url(#clip0_958_6507)">
<path d="M83.6863 22.3865C83.6397 23.636 83.2932 24.7004 82.6453 25.5797C82.0204 26.459 81.1875 27.0722 80.1459 27.4193C79.6601 27.5813 78.9893 27.7085 78.1328 27.8011C77.2769 27.8936 76.4203 27.9399 75.5644 27.9399C74.5923 27.9399 73.8289 27.9167 73.2736 27.8705V35.8535H70.9829V16.7637H76.9874C77.8899 16.7637 78.5378 16.7984 78.9309 16.8678C79.3477 16.9141 79.7527 16.9835 80.1459 17.076C81.2565 17.4694 82.1242 18.1289 82.749 19.0545C83.3739 19.9569 83.6863 21.0676 83.6863 22.3865ZM75.7725 25.9268C76.9762 25.9268 77.9707 25.8458 78.7576 25.6838C79.5446 25.5218 80.1807 25.1748 80.6664 24.6426C81.1527 24.0872 81.3956 23.2889 81.3956 22.2477C81.3956 21.2296 81.1061 20.4312 80.5279 19.8528C79.9496 19.2743 79.1744 18.9388 78.2023 18.8462C77.8551 18.7537 77.0452 18.7074 75.7725 18.7074H73.2736V25.8227C74.1991 25.8921 75.0321 25.9268 75.7725 25.9268ZM91.0393 24.2955C90.553 24.2955 89.9629 24.3534 89.2691 24.469C88.5983 24.5616 87.9964 24.6888 87.4641 24.8508L87.0131 23.1848C88.5635 22.6526 90.0095 22.3865 91.3517 22.3865C92.8555 22.3865 94.0009 22.6179 94.7878 23.0807C95.4816 23.5897 95.9562 24.1335 96.2109 24.712C96.4885 25.2905 96.627 26.135 96.627 27.2457V35.8535H94.9264L94.4406 34.604C93.122 35.6684 91.7679 36.2006 90.3797 36.2006C89.1765 36.2006 88.1585 35.8535 87.3255 35.1593C86.5156 34.4652 86.1106 33.5859 86.1106 32.5215C86.1106 31.4802 86.423 30.6241 87.0479 29.953C87.6957 29.2588 88.4821 28.7961 89.4076 28.5646C90.5877 28.2638 92.2424 28.0903 94.3711 28.044V27.9399C94.3711 26.9912 94.2785 26.297 94.0934 25.8574C93.7232 24.8161 92.7052 24.2955 91.0393 24.2955ZM90.6921 34.3957C91.4555 34.3957 92.1269 34.2685 92.7052 34.014C93.2835 33.7363 93.8387 33.3545 94.3711 32.8685V29.6754C92.7747 29.6985 91.5946 29.7911 90.8306 29.953C89.9747 30.1381 89.3386 30.4158 88.9219 30.786C88.5057 31.1331 88.297 31.6306 88.297 32.2785C88.297 32.9495 88.5287 33.4702 88.9914 33.8404C89.4772 34.2106 90.0443 34.3957 90.6921 34.3957ZM104.297 43.0035H101.971L104.54 36.5477L99.1948 22.5254H101.555L105.65 33.5627L109.746 22.5254H111.898L104.297 43.0035ZM118.622 34.0834C118.969 34.0834 119.362 34.014 119.802 33.8751L120.218 35.5064C120.149 35.5295 119.871 35.6453 119.385 35.8535C118.9 36.0618 118.275 36.1659 117.511 36.1659C116.655 36.1659 115.972 35.8766 115.464 35.2982C114.954 34.6965 114.688 33.9214 114.665 32.9727V17.3537H116.852V32.1744C116.852 32.7992 116.955 33.2735 117.164 33.5974C117.372 33.9214 117.858 34.0834 118.622 34.0834ZM126.615 24.2955C126.13 24.2955 125.54 24.3534 124.846 24.469C124.174 24.5616 123.573 24.6888 123.041 24.8508L122.589 23.1848C124.14 22.6526 125.586 22.3865 126.928 22.3865C128.432 22.3865 129.578 22.6179 130.364 23.0807C131.058 23.5897 131.533 24.1335 131.788 24.712C132.065 25.2905 132.204 26.135 132.204 27.2457V35.8535H130.503L130.017 34.604C128.698 35.6684 127.345 36.2006 125.956 36.2006C124.753 36.2006 123.735 35.8535 122.902 35.1593C122.092 34.4652 121.687 33.5859 121.687 32.5215C121.687 31.4802 121.999 30.6241 122.624 29.953C123.272 29.2588 124.059 28.7961 124.984 28.5646C126.164 28.2638 127.819 28.0903 129.948 28.044V27.9399C129.948 26.9912 129.855 26.297 129.67 25.8574C129.3 24.8161 128.282 24.2955 126.615 24.2955ZM126.269 34.3957C127.032 34.3957 127.703 34.2685 128.282 34.014C128.86 33.7363 129.415 33.3545 129.948 32.8685V29.6754C128.351 29.6985 127.171 29.7911 126.407 29.953C125.551 30.1381 124.915 30.4158 124.499 30.786C124.082 31.1331 123.874 31.6306 123.874 32.2785C123.874 32.9495 124.105 33.4702 124.568 33.8404C125.054 34.2106 125.621 34.3957 126.269 34.3957ZM140.533 36.1312C139.191 36.1312 138.231 35.7725 137.652 35.0552C137.096 34.3147 136.819 33.2041 136.819 31.7232V24.3996H134.563V22.5254H136.819V19.2627L139.075 19.0892V22.5254H143.448V24.3996H139.075V31.5843C139.075 32.5099 139.214 33.1809 139.491 33.5974C139.792 34.014 140.359 34.2222 141.192 34.2222C141.979 34.2222 142.685 34.1528 143.31 34.014L143.692 35.5412C142.65 35.9345 141.597 36.1312 140.533 36.1312ZM151.6 22.3518C153.359 22.3518 154.713 22.884 155.661 23.9484C156.61 24.9897 157.084 26.4706 157.084 28.3911V29.6059L156.946 29.8836H147.817C147.817 31.0174 148.246 32.0703 149.102 33.0421C149.912 33.852 151.172 34.2569 152.885 34.2569C154.018 34.2569 155.094 34.0834 156.113 33.7363L156.529 35.4023C155.118 35.8882 153.695 36.1312 152.26 36.1312C150.108 36.1312 148.465 35.5527 147.331 34.3957C146.198 33.2388 145.631 31.5843 145.631 29.4324C145.631 27.3961 146.128 25.7186 147.123 24.3996C148.187 23.0344 149.68 22.3518 151.6 22.3518ZM154.794 28.0787C154.794 26.9218 154.539 25.9731 154.03 25.2326C153.544 24.4922 152.815 24.1219 151.843 24.1219C150.617 24.1219 149.68 24.4922 149.032 25.2326C148.384 25.9731 147.991 26.9218 147.852 28.0787H154.794ZM166.036 22.3518C166.546 22.3518 166.95 22.3865 167.251 22.4559C167.575 22.5022 167.887 22.5947 168.188 22.7336L167.39 24.7467C166.788 24.469 166.129 24.3302 165.411 24.3302C164.439 24.3302 163.479 24.6541 162.53 25.302V35.8535H160.275V22.5254H161.906L162.392 23.6707C163.549 22.7915 164.763 22.3518 166.036 22.3518Z" fill="#64A9A0"/>
<path d="M183.32 24.7814H174.087V16.7637H170.686V35.8535H174.087V27.8705H183.32V35.8535H186.687V16.7637H183.32V24.7814ZM202.4 35.8882V22.5254H199.138V32.5215C198.212 33.0536 197.24 33.3198 196.222 33.3198C195.297 33.3198 194.66 33.0421 194.313 32.4867C193.966 31.9314 193.792 31.2951 193.792 30.5778V22.5254H190.495V30.1265C190.495 31.8157 190.796 33.2504 191.398 34.4304C192.022 35.5874 193.341 36.1659 195.354 36.1659C196.141 36.1659 196.835 36.0618 197.437 35.8535C198.062 35.6453 198.813 35.3329 199.693 34.9164L200.109 35.8882H202.4ZM205.943 35.8535H208.303L208.581 35.1246C209.761 35.8188 210.94 36.1659 212.121 36.1659C214.273 36.1659 215.939 35.5527 217.119 34.3263C218.322 33.0768 218.924 31.3761 218.924 29.2241C218.924 27.6044 218.6 26.2855 217.952 25.2674C217.304 24.2261 216.483 23.474 215.488 23.0113C214.516 22.5485 213.498 22.3171 212.433 22.3171C211.16 22.3171 210.108 22.5022 209.275 22.8724V16.7637H205.943V35.8535ZM211.67 24.9203C214.238 24.9203 215.523 26.4127 215.523 29.3976C215.523 30.8554 215.152 31.9198 214.411 32.5909C213.695 33.2388 212.745 33.5627 211.565 33.5627C210.686 33.5627 209.922 33.3429 209.275 32.9033V25.3715C209.969 25.0706 210.767 24.9203 211.67 24.9203Z" fill="#9CBB59"/>
<path d="M14.6246 24.8098L0 24.6399L14.5258 49.6195L29.1485 49.7895L14.6246 24.8098Z" fill="#9CBB59"/>
<path d="M42.7407 36.2429L49.9108 48.5683L64.1252 25.3851L49.5011 25.2151L42.7407 36.2429Z" fill="#64A9A0"/>
<path d="M38.6152 15.4459L23.9862 15.2759L18.1182 24.8499L32.7406 25.0198L38.6152 15.4459Z" fill="#D6E4B2"/>
<path d="M47.2725 50L32.7406 25.0203L18.1182 24.8503L32.644 49.83L47.2725 50Z" fill="#9CBB59"/>
<path d="M50.4618 1.88843L42.9653 13.9699L49.5011 25.2147L64.1252 25.3847L50.4618 1.88843Z" fill="#9CBB59"/>
<path d="M22.273 12.3295L40.4039 12.5402L47.8562 0.380654L15.1034 0L0.000976562 24.6394L14.6255 24.8094L22.273 12.3295Z" fill="#D6E4B2"/>
</g>
<defs>
<clipPath id="clip0_958_6507">
<rect width="218.924" height="50" fill="white"/>
</clipPath>
</defs>
</svg>
