<svg width="24" height="24" viewBox="0 0 24 24" fill="none" xmlns="http://www.w3.org/2000/svg">
<rect width="24" height="24" rx="4" fill="#FFE6E9"/>
<g clip-path="url(#clip0_2431_13030)">
<path d="M7 7L17 17" stroke="#FD6778" stroke-width="0.75" stroke-linecap="round" stroke-linejoin="round"/>
<path d="M10.1719 7.34458C11.0772 6.99099 12.0659 6.90892 13.0171 7.1084C13.9684 7.30789 14.8408 7.78027 15.5278 8.46779C16.2148 9.1553 16.6865 10.0281 16.8852 10.9795C17.084 11.9309 17.0012 12.9195 16.6469 13.8246" stroke="#FD6778" stroke-width="0.75" stroke-linecap="round" stroke-linejoin="round"/>
<path d="M15.5385 15.54C15.0736 16.0048 14.5217 16.3736 13.9143 16.6252C13.3069 16.8768 12.6559 17.0063 11.9985 17.0063C11.3411 17.0063 10.6901 16.8768 10.0827 16.6252C9.47528 16.3736 8.92338 16.0048 8.4585 15.54C7.99362 15.0751 7.62486 14.5232 7.37327 13.9158C7.12168 13.3084 6.99219 12.6574 6.99219 12C6.99219 11.3425 7.12168 10.6915 7.37327 10.0841C7.62486 9.47673 7.99362 8.92484 8.4585 8.45996" stroke="#FD6778" stroke-width="0.75" stroke-linecap="round" stroke-linejoin="round"/>
</g>
<defs>
<clipPath id="clip0_2431_13030">
<rect width="12" height="12" fill="white" transform="translate(6 6)"/>
</clipPath>
</defs>
</svg>
