<svg width="24" height="24" viewBox="0 0 24 24" fill="none" xmlns="http://www.w3.org/2000/svg">
<rect width="24" height="24" rx="4" fill="#E6F4FF"/>
<path d="M13.5 7H10.5C10.2239 7 10 7.22386 10 7.5V8.5C10 8.77614 10.2239 9 10.5 9H13.5C13.7761 9 14 8.77614 14 8.5V7.5C14 7.22386 13.7761 7 13.5 7Z" stroke="#028DFF" stroke-width="0.75" stroke-linecap="round" stroke-linejoin="round"/>
<path d="M14 8H15C15.2652 8 15.5196 8.10536 15.7071 8.29289C15.8946 8.48043 16 8.73478 16 9V16C16 16.2652 15.8946 16.5196 15.7071 16.7071C15.5196 16.8946 15.2652 17 15 17H9C8.73478 17 8.48043 16.8946 8.29289 16.7071C8.10536 16.5196 8 16.2652 8 16V9C8 8.73478 8.10536 8.48043 8.29289 8.29289C8.48043 8.10536 8.73478 8 9 8H10" stroke="#028DFF" stroke-width="0.75" stroke-linecap="round" stroke-linejoin="round"/>
<path d="M10.5 13H13.5" stroke="#028DFF" stroke-width="0.75" stroke-linecap="round" stroke-linejoin="round"/>
<path d="M12 14.5V11.5" stroke="#028DFF" stroke-width="0.75" stroke-linecap="round" stroke-linejoin="round"/>
</svg>
