<svg width="24" height="24" viewBox="0 0 24 24" fill="none" xmlns="http://www.w3.org/2000/svg">
<rect width="24" height="24" rx="4" fill="#FEF5E6"/>
<path d="M9 12.9991L9.75 11.5491C9.83154 11.3871 9.95556 11.2504 10.1088 11.1535C10.262 11.0567 10.4387 11.0033 10.62 10.9991H16M16 10.9991C16.1528 10.9988 16.3036 11.0335 16.4408 11.1006C16.5781 11.1677 16.6981 11.2653 16.7918 11.386C16.8854 11.5067 16.9502 11.6472 16.9811 11.7968C17.012 11.9465 17.0082 12.1012 16.97 12.2491L16.2 15.2491C16.1443 15.4649 16.0181 15.6558 15.8415 15.7917C15.6648 15.9276 15.4479 16.0006 15.225 15.9991H8C7.73478 15.9991 7.48043 15.8937 7.29289 15.7062C7.10536 15.5186 7 15.2643 7 14.9991V8.49907C7 8.23385 7.10536 7.9795 7.29289 7.79196C7.48043 7.60443 7.73478 7.49907 8 7.49907H9.95C10.1172 7.49743 10.2822 7.53777 10.4298 7.61638C10.5775 7.695 10.703 7.80938 10.795 7.94907L11.2 8.54907C11.2911 8.68734 11.415 8.80083 11.5608 8.87937C11.7065 8.95791 11.8694 8.99904 12.035 8.99907H15C15.2652 8.99907 15.5196 9.10443 15.7071 9.29196C15.8946 9.4795 16 9.73386 16 9.99907V10.9991Z" stroke="#F79E1B" stroke-width="0.75" stroke-linecap="round" stroke-linejoin="round"/>
</svg>
