<svg width="24" height="24" viewBox="0 0 24 24" fill="none" xmlns="http://www.w3.org/2000/svg">
<rect width="24" height="24" rx="4" fill="#EFF6F5"/>
<path d="M11.3333 12.0002H12.6667C13.0203 12.0002 13.3594 11.8597 13.6095 11.6096C13.8595 11.3596 14 11.0205 14 10.6668C14 10.3132 13.8595 9.97407 13.6095 9.72402C13.3594 9.47397 13.0203 9.3335 12.6667 9.3335H10.6667C10.2667 9.3335 9.93333 9.46683 9.73333 9.7335L6 13.3335" stroke="#64A9A0" stroke-linecap="round" stroke-linejoin="round"/>
<path d="M8.66406 16.0002L9.73073 15.0668C9.93073 14.8002 10.2641 14.6668 10.6641 14.6668H13.3307C14.0641 14.6668 14.7307 14.4002 15.1974 13.8668L18.2641 10.9335C18.5213 10.6904 18.6715 10.355 18.6815 10.0012C18.6915 9.64741 18.5605 9.30411 18.3174 9.04685C18.0743 8.78959 17.7389 8.63944 17.3851 8.62944C17.0313 8.61944 16.688 8.7504 16.4307 8.99351L13.6307 11.5935" stroke="#64A9A0" stroke-linecap="round" stroke-linejoin="round"/>
<path d="M5.33594 12.6665L9.33594 16.6665" stroke="#64A9A0" stroke-linecap="round" stroke-linejoin="round"/>
</svg>
