<svg width="24" height="24" viewBox="0 0 24 24" fill="none" xmlns="http://www.w3.org/2000/svg">
<rect width="24" height="24" rx="4" fill="#FEF5E6"/>
<g opacity="0.85" clip-path="url(#clip0_3656_13567)">
<path d="M15 16.5C15 15.4391 14.5786 14.4217 13.8284 13.6716C13.0783 12.9214 12.0609 12.5 11 12.5C9.93913 12.5 8.92172 12.9214 8.17157 13.6716C7.42143 14.4217 7 15.4391 7 16.5" stroke="#F79E1B" stroke-width="1.5" stroke-linecap="round" stroke-linejoin="round"/>
<path d="M11 12.5C12.3807 12.5 13.5 11.3807 13.5 10C13.5 8.61929 12.3807 7.5 11 7.5C9.61929 7.5 8.5 8.61929 8.5 10C8.5 11.3807 9.61929 12.5 11 12.5Z" stroke="#F79E1B" stroke-width="1.5" stroke-linecap="round" stroke-linejoin="round"/>
<path d="M16.9984 16.0001C16.9984 14.3151 15.9984 12.7501 14.9984 12.0001C15.3271 11.7535 15.59 11.4296 15.7637 11.0572C15.9374 10.6848 16.0167 10.2753 15.9944 9.865C15.9722 9.45466 15.8491 9.05614 15.6362 8.7047C15.4232 8.35325 15.1269 8.05973 14.7734 7.8501" stroke="#F79E1B" stroke-width="1.5" stroke-linecap="round" stroke-linejoin="round"/>
</g>
<defs>
<clipPath id="clip0_3656_13567">
<rect width="12" height="12" fill="white" transform="translate(6 6)"/>
</clipPath>
</defs>
</svg>
