<svg width="24" height="24" viewBox="0 0 24 24" fill="none" xmlns="http://www.w3.org/2000/svg">
<rect width="24" height="24" rx="4" fill="#D6DDEB" fill-opacity="0.5"/>
<path d="M15.5 9.5V8C15.5 7.86739 15.4473 7.74021 15.3536 7.64645C15.2598 7.55268 15.1326 7.5 15 7.5H8.5C8.23478 7.5 7.98043 7.60536 7.79289 7.79289C7.60536 7.98043 7.5 8.23478 7.5 8.5C7.5 8.76522 7.60536 9.01957 7.79289 9.20711C7.98043 9.39464 8.23478 9.5 8.5 9.5H16C16.1326 9.5 16.2598 9.55268 16.3536 9.64645C16.4473 9.74021 16.5 9.86739 16.5 10V12M16.5 12H15C14.7348 12 14.4804 12.1054 14.2929 12.2929C14.1054 12.4804 14 12.7348 14 13C14 13.2652 14.1054 13.5196 14.2929 13.7071C14.4804 13.8946 14.7348 14 15 14H16.5C16.6326 14 16.7598 13.9473 16.8536 13.8536C16.9473 13.7598 17 13.6326 17 13.5V12.5C17 12.3674 16.9473 12.2402 16.8536 12.1464C16.7598 12.0527 16.6326 12 16.5 12Z" stroke="#475367" stroke-width="0.75" stroke-linecap="round" stroke-linejoin="round"/>
<path d="M7.5 8.5V15.5C7.5 15.7652 7.60536 16.0196 7.79289 16.2071C7.98043 16.3946 8.23478 16.5 8.5 16.5H16C16.1326 16.5 16.2598 16.4473 16.3536 16.3536C16.4473 16.2598 16.5 16.1326 16.5 16V14" stroke="#475367" stroke-width="0.75" stroke-linecap="round" stroke-linejoin="round"/>
</svg>
