<svg width="41" height="40" viewBox="0 0 41 40" fill="none" xmlns="http://www.w3.org/2000/svg">
<path d="M30.6278 2.58789L37.5828 9.83789V37.4079H11.6016V37.4979H37.6716V9.92914L30.6278 2.58789Z" fill="#909090"/>
<path d="M30.5366 2.5H11.5078V37.41H37.5778V9.84125L30.5366 2.5Z" fill="#F4F4F4"/>
<path d="M11.3156 4.375H3.32812V12.9087H28.4531V4.375H11.3156Z" fill="#7A7B7C"/>
<path d="M28.5884 12.7646H3.49219V4.22461H28.5884V12.7646Z" fill="#DD2025"/>
<path d="M11.8134 5.66929H10.1797V11.6693H11.4647V9.64554L11.7484 9.66179C12.0242 9.65799 12.2975 9.60857 12.5572 9.51554C12.7855 9.43803 12.9953 9.31419 13.1734 9.15179C13.3561 8.99859 13.4997 8.80405 13.5922 8.58429C13.7187 8.22018 13.7636 7.83267 13.7234 7.44929C13.7163 7.17536 13.6683 6.90403 13.5809 6.64429C13.5022 6.45655 13.3852 6.28731 13.2373 6.1474C13.0894 6.00749 12.914 5.9 12.7222 5.83179C12.5568 5.77055 12.3855 5.72697 12.2109 5.70179C12.0791 5.68032 11.9458 5.66945 11.8122 5.66929M11.5759 8.53679H11.4647V6.68679H11.7059C11.8124 6.67911 11.9193 6.69546 12.0186 6.73462C12.1179 6.77378 12.2071 6.83476 12.2797 6.91304C12.4301 7.11431 12.5104 7.3593 12.5084 7.61054C12.5084 7.91804 12.5084 8.19679 12.2309 8.39304C12.0311 8.50313 11.8035 8.5539 11.5759 8.53679ZM16.1647 5.65304C16.0259 5.65304 15.8909 5.66304 15.7959 5.66679L15.4984 5.67429H14.5234V11.6743H15.6709C16.1094 11.6856 16.5459 11.6113 16.9559 11.4555C17.2861 11.3252 17.5783 11.1142 17.8059 10.8418C18.029 10.5682 18.1883 10.2484 18.2722 9.90554C18.3708 9.51795 18.4187 9.11921 18.4147 8.71929C18.4392 8.24699 18.4026 7.7735 18.3059 7.31054C18.2134 6.97015 18.0421 6.65629 17.8059 6.39429C17.6207 6.18243 17.3928 6.01205 17.1372 5.89429C16.9182 5.79279 16.6878 5.71808 16.4509 5.67179C16.3567 5.65635 16.2614 5.64924 16.1659 5.65054M15.9384 10.5718H15.8134V6.74179H15.8297C16.0874 6.71199 16.3482 6.7585 16.5797 6.87554C16.7493 7.01095 16.8874 7.18154 16.9847 7.37554C17.0896 7.57971 17.1501 7.8038 17.1622 8.03304C17.1734 8.30804 17.1622 8.53304 17.1622 8.71929C17.1668 8.93383 17.153 9.14837 17.1209 9.36054C17.0816 9.57812 17.0104 9.78872 16.9097 9.98554C16.7959 10.1691 16.6404 10.3233 16.4559 10.4355C16.3018 10.5355 16.1191 10.5821 15.9359 10.568M22.2859 5.67429H19.2484V11.6743H20.5334V9.29429H22.1584V8.17929H20.5334V6.78929H22.2834V5.67429" fill="#464648"/>
<path d="M27.7288 25.3169C27.7288 25.3169 31.7138 24.5944 31.7138 25.9557C31.7138 27.3169 29.245 26.7632 27.7288 25.3169ZM24.7825 25.4207C24.1493 25.5602 23.5323 25.7651 22.9413 26.0319L23.4413 24.9069C23.9413 23.7819 24.46 22.2482 24.46 22.2482C25.0552 23.2533 25.7495 24.1964 26.5325 25.0632C25.943 25.151 25.3588 25.2712 24.7825 25.4232V25.4207ZM23.205 17.2957C23.205 16.1094 23.5888 15.7857 23.8875 15.7857C24.1863 15.7857 24.5225 15.9294 24.5338 16.9594C24.4363 17.9951 24.2195 19.0161 23.8875 20.0019C23.4313 19.1748 23.1958 18.244 23.2038 17.2994L23.205 17.2957ZM17.3938 30.4407C16.1713 29.7094 19.9575 27.4582 20.6438 27.3857C20.64 27.3869 18.6738 31.2057 17.3938 30.4407ZM32.8775 26.1169C32.865 25.9919 32.7525 24.6082 30.29 24.6669C29.2636 24.6489 28.2376 24.7213 27.2238 24.8832C26.2411 23.8941 25.3953 22.7779 24.7088 21.5644C25.141 20.3136 25.403 19.0102 25.4875 17.6894C25.4513 16.1894 25.0925 15.3294 23.9425 15.3419C22.7925 15.3544 22.625 16.3607 22.7763 17.8582C22.9243 18.8645 23.2038 19.8471 23.6075 20.7807C23.6075 20.7807 23.0763 22.4344 22.3738 24.0794C21.6713 25.7244 21.1913 26.5869 21.1913 26.5869C19.9695 26.9842 18.8195 27.575 17.785 28.3369C16.755 29.2957 16.3363 30.0319 16.8788 30.7682C17.3463 31.4032 18.9825 31.5469 20.445 29.6307C21.2208 28.64 21.9306 27.5994 22.57 26.5157C22.57 26.5157 24.8 25.9044 25.4938 25.7369C26.1875 25.5694 27.0263 25.4369 27.0263 25.4369C27.0263 25.4369 29.0625 27.4857 31.0263 27.4132C32.99 27.3407 32.895 26.2394 32.8825 26.1194" fill="#DD2025"/>
<path d="M30.4453 2.59766V9.93891H37.4866L30.4453 2.59766Z" fill="#909090"/>
<path d="M30.5391 2.5V9.84125H37.5803L30.5391 2.5Z" fill="#F4F4F4"/>
<path d="M11.7197 5.57164H10.0859V11.5716H11.3759V9.54914L11.6609 9.56539C11.9367 9.56158 12.21 9.51217 12.4697 9.41914C12.698 9.34163 12.9078 9.21779 13.0859 9.05539C13.2673 8.90177 13.4095 8.70726 13.5009 8.48789C13.6275 8.12378 13.6723 7.73627 13.6322 7.35289C13.6251 7.07895 13.577 6.80762 13.4897 6.54789C13.411 6.36015 13.2939 6.19091 13.1461 6.051C12.9982 5.91109 12.8227 5.80359 12.6309 5.73539C12.4648 5.67355 12.2926 5.62955 12.1172 5.60414C11.9854 5.58267 11.852 5.5718 11.7184 5.57164M11.4822 8.43914H11.3709V6.58914H11.6134C11.7199 6.58146 11.8268 6.5978 11.9261 6.63696C12.0254 6.67612 12.1146 6.7371 12.1872 6.81539C12.3376 7.01665 12.4179 7.26164 12.4159 7.51289C12.4159 7.82039 12.4159 8.09914 12.1384 8.29539C11.9386 8.40548 11.711 8.45499 11.4834 8.43789M16.0709 5.55539C15.9322 5.55539 15.7972 5.56539 15.7022 5.56914L15.4084 5.57664H14.4334V11.5766H15.5809C16.0194 11.5879 16.4559 11.5136 16.8659 11.3579C17.1961 11.2275 17.4883 11.0165 17.7159 10.7441C17.939 10.4706 18.0983 10.1507 18.1822 9.80789C18.2808 9.42029 18.3287 9.02155 18.3247 8.62163C18.3492 8.14933 18.3126 7.67584 18.2159 7.21289C18.1234 6.8725 17.9521 6.55864 17.7159 6.29664C17.5307 6.08477 17.3028 5.91439 17.0472 5.79664C16.8282 5.69513 16.5978 5.62043 16.3609 5.57414C16.2667 5.5587 16.1714 5.55158 16.0759 5.55289M15.8484 10.4741H15.7234V6.64414H15.7397C15.9974 6.61434 16.2582 6.66084 16.4897 6.77789C16.6593 6.91329 16.7974 7.08388 16.8947 7.27789C16.9996 7.48205 17.0601 7.70614 17.0722 7.93539C17.0834 8.21039 17.0722 8.43538 17.0722 8.62163C17.0768 8.83617 17.063 9.05071 17.0309 9.26289C16.9916 9.48047 16.9204 9.69106 16.8197 9.88789C16.7059 10.0714 16.5504 10.2256 16.3659 10.3379C16.2118 10.4379 16.0291 10.4844 15.8459 10.4704M22.1922 5.57664H19.1547V11.5766H20.4397V9.19664H22.0647V8.08164H20.4397V6.69164H22.1897V5.57664" fill="white"/>
</svg>
